<svg xmlns="http://www.w3.org/2000/svg" fill="none" viewBox="-10.24 -10.24 4096 4096" id="Video-Conference--Streamline-Bangalore" height="4096" width="4096"><desc>Video Conference Streamline Illustration: https://streamlinehq.com</desc><g id="Work-Video-conference-01"><g id="color 2"><path id="Vector" fill="#cbacf9" d="M1936.6850662400002 359.94992640000004c-151.9557632 4.2385408 -271.7964288 120.22784000000001 -267.55788800000005 259.0400512 4.646092800000001 161.594368 170.88655359999998 272.5707776 337.5345664 236.21713920000002l-8.9050112 -104.78161920000001c-1.9379097600000001 -17.36579072 -0.43404288 -34.943508480000006 4.42601472 -51.7285376 4.8600576 -16.78299136 12.978493440000001 -32.44521472 23.894773760000003 -46.090055680000006 10.91628032 -13.64484096 24.41847808 -25.005352960000003 39.722055680000004 -33.43149056 15.3035776 -8.42409984 32.1354752 -13.75080448 49.4971904 -15.67241216l103.2329216 -8.8846336c-8.4974592 -134.53291520000002 -133.0045952 -238.92736 -281.84462336 -234.66844160000002Z" stroke-width="20.48"></path><path id="Subtract" fill="#cbacf9" fill-rule="evenodd" d="m1792.85996544 3073.6756736 1238.73596416 -104.39444480000002c33.826816 -2.8936192 65.1268096 -19.0938112 87.01235199999999 -45.0548736 21.905920000000002 -25.961062400000003 32.60416 -59.54334720000001 29.751296 -93.37016320000001l-71.9125504 -844.7737856000001c-2.8936192 -33.826816 -19.0938112 -65.11865856000001 -45.0548736 -87.01031424 -25.9406848 -21.891655680000003 -59.522969599999996 -32.59193344 -93.34978560000002 -29.75333376l-661.8644479999999 55.6919808c-11.6967424 17.836513280000002 -19.3179648 27.128698879999998 -36.883456 40.93656064 -18.84928 14.41307648 -40.8367104 24.137267200000004 -64.18944 28.369694720000002 -23.332352 4.23038976 -47.3575424 2.8447129600000003 -70.05818880000001 -4.03884032 -22.700646400000004 -6.8855910399999996 -43.44504320000001 -19.0734336 -60.5010944 -35.55687424 -3.0158848 -2.9730918400000004 -6.0317696 -5.956372480000001 -9.04154112 -8.94780416l-206.48214528 17.34541312c68.49522688 243.08235264 75.68851968000001 411.72737023999997 80.71974912 652.57022464 4.1672192 70.7917824 -5.52436736 141.726208 -28.52864 208.78888960000003l-88.35319808 249.1976704Zm721.4302105600001 -549.787648 124.8943104 58.38182400000001 -22.4357376 -265.23484160000004 -113.2790784 78.86131200000001c-3.9736320000000003 -24.9829376 -17.2802048 -47.5205632 -37.2298752 -63.0890496 -19.949670400000002 -15.568486400000001 -45.034496000000004 -22.9859328 -70.2415872 -20.785152l-241.6579584 20.88704c-13.143552000000001 1.0800128 -25.9406848 4.7683584 -37.678182400000004 10.8205056 -11.71712 6.0521472 -22.109696 14.3865856 -30.586777599999998 24.4938752 -8.4974592 10.086912 -14.875648 21.7836544 -18.8289024 34.377011200000005 -3.9328768000000003 12.5729792 -5.3389312 25.8184192 -4.1366528 38.9619712l9.6589824 112.0768c1.0800128 13.143552000000001 4.7683584 25.9406848 10.8205056 37.6578048 6.0521472 11.71712 14.3865856 22.130073600000003 24.4938752 30.6071552 10.086912 8.4770816 21.7836544 14.875648 34.3566336 18.8289024 12.5933568 3.9328768000000003 25.8387968 5.3389312 38.982348800000004 4.1366528l241.25040640000003 -20.0923136c13.123174400000002 -1.120768 25.920307200000003 -4.8294912 37.6170496 -10.902016000000001 11.6967424 -6.0725248 22.0689408 -14.4069632 30.546022400000005 -24.4938752 8.4770816 -10.086912 14.875648 -21.763276800000003 18.8289024 -34.336256000000006 3.1789056 -10.1072896 4.747980800000001 -20.642508799999998 4.6257152 -31.1981056l0 0.040755200000000005Z" clip-rule="evenodd" stroke-width="20.48"></path><path id="Vector_2" fill="#cbacf9" d="M3422.0918784 1989.5669760000003c1.0596352 9.2310528 0.2649088 18.580295680000003 -2.3230464000000004 27.505684480000003 -2.5879552 8.9253888 -6.9080064000000005 17.251676160000002 -12.7156224 24.49795072 -5.8279936 7.2544256 -13.021286400000001 13.265817600000002 -21.1723264 17.708134400000002 -8.15104 4.4626944 -17.117184 7.2544256 -26.3482368 8.212172800000001 -9.2514304 0.9781248 -18.584371200000003 0.101888 -27.4893824 -2.5472 -8.9050112 -2.6694656 -17.1986944 -7.0506496 -24.391987200000003 -12.939776 -7.1932928 -5.8891264 -13.143552000000001 -13.123174400000002 -17.524736 -21.321082880000002 -4.381184 -8.19383296 -7.0914048 -17.17424128 -7.988019200000001 -26.42363392l-11.207680000000002 -105.96352c-1.7728512 -18.470256640000002 3.8106112000000003 -36.895682560000004 15.548108800000001 -51.265966080000005 11.757875199999999 -14.368245759999999 28.6916608 -23.51778816 47.1537664 -25.453660160000002 18.441728 -1.9379097600000001 36.9242112 3.49272064 51.3923072 15.109990400000001 14.468096 11.617269760000001 23.7602816 28.479733760000002 25.8591744 46.91738624l11.207680000000002 105.96352Z" stroke-width="20.48"></path></g><g id="color 1"><path id="Vector_3" fill="#6153bd" d="M2646.5204224 712.5435392c5.9910144 14.060544 10.5352192 28.701849600000003 13.5307264 43.689574400000005 11.5948544 -24.353269760000003 18.441728 -50.69743104 20.1534464 -77.61827840000001 -12.0024064 13.143552000000001 -23.230463999999998 24.269721600000004 -33.6841728 33.928704Z" stroke-width="20.48"></path><path id="Vector_4" fill="#6153bd" d="M1595.27875584 1244.154368c3.32562432 18.28482048 9.59581184 35.90940672 18.5639936 52.1870336 29.771673600000003 0 62.6407424 -3.8513664000000003 70.75102720000001 -15.833395200000002 1.1615232000000002 -2.03776 2.3230464000000004 -4.2589184 3.4845696000000004 -6.581964800000001 -11.207680000000002 22.089318400000003 -51.759104 -0.32604160000000004 -92.79959040000001 -29.771673600000003Z" stroke-width="20.48"></path><path id="Vector_5" fill="#6153bd" d="M571.8953062400001 2104.0075776000003c-71.9125504 -103.2329216 -529.2869672960001 273.7323008 -463.569207296 368.83456000000007l11.207680000000002 10.0461568c95.121821696 52.98176 508.42030489600006 -297.67598080000005 452.361527296 -378.8807168Z" stroke-width="20.48"></path><path id="Vector_6" fill="#6153bd" d="M1354.4175616 3434.7667456000004c-93.98149120000001 44.688076800000005 196.6642176 568.9833472 285.2864 494.5032192 53.0225152 -76.9458176 -211.0508032 -530.0621312000001 -285.2864 -494.5032192Z" stroke-width="20.48"></path><path id="Vector_7" fill="#6153bd" d="M470.21108224 2431.8627840000004c-1.8115686400000002 6.663475200000001 -2.33119744 13.632614400000001 -1.5283200000000001 20.4998656 3.871744 24.738406400000002 35.55891200000001 25.8999296 56.833126400000005 20.0923136 -14.89806336 -17.7896448 -33.87164672 -31.707545600000003 -55.304806400000004 -40.592179200000004Z" stroke-width="20.48"></path><path id="Vector_8" fill="#6153bd" d="M675.49502464 2230.0430336000004c14.6922496 18.1768192 29.771673600000003 36.3332608 43.302400000000006 52.98176 2.26598912 -6.480076800000001 3.6964966400000003 -13.24544 4.2589184 -20.0923136 0.38717440000000003 -5.8076159999999994 -0.7417446400000001 -11.6356096 -3.2746803200000003 -16.8726528 -2.53293568 -5.2574208 -6.384302080000001 -9.7404928 -11.1771136 -13.0620416 -4.79077376 -3.3215488000000004 -10.3620096 -5.3185536 -16.163512320000002 -5.8483712 -5.803540480000001 -0.50944 -11.641722880000001 0.4890624 -16.946012160000002 2.8936192Z" stroke-width="20.48"></path><path id="Vector_9" fill="#6153bd" d="M1379.1539302400001 1446.8096c-4.28337152 0.46053376 -8.3344384 2.17836544 -11.641722880000001 4.941568 -3.3052467200000004 2.7611648000000004 -5.717954560000001 6.44135936 -6.93449728 10.575974400000002 -1.21450496 4.1325772800000005 -1.17578752 8.53413888 0.11003904 12.646338560000002 1.2878643200000002 4.11016192 3.76374272 7.749601280000001 7.11789568 10.453708800000001 3.35415296 2.7041075200000004 7.43374848 4.352655360000001 11.72527104 4.737792000000001s8.5993472 -0.51147776 12.381429760000001 -2.57369088c3.78208256 -2.0642508800000003 6.867251200000001 -5.202401280000001 8.864256000000001 -9.01912576 1.9990425600000001 -3.81672448 2.82025984 -8.1408512 2.36176384 -12.424222720000001 -0.2649088 -2.8610150400000003 -1.10242816 -5.63848192 -2.45957632 -8.16937984 -1.3571481600000002 -2.53293568 -3.2094720000000003 -4.76632064 -5.44489472 -6.56973824 -2.23746048 -1.8013798400000003 -4.8131891200000005 -3.1381504000000002 -7.57435392 -3.92880128 -2.7611648000000004 -0.7906508800000001 -5.654784000000001 -1.01888 -8.505610240000001 -0.67042304Z" stroke-width="20.48"></path><path id="Vector_10" fill="#6153bd" d="M1224.50832384 1626.5196544c-4.28337152 0.46053376 -8.3344384 2.17836544 -11.641722880000001 4.941568 -3.3052467200000004 2.7611648000000004 -5.717954560000001 6.44135936 -6.93245952 10.575974400000002 -1.21654272 4.1325772800000005 -1.17782528 8.53413888 0.10800128 12.646338560000002 1.2878643200000002 4.11016192 3.76374272 7.749601280000001 7.11789568 10.453708800000001 3.35415296 2.7041075200000004 7.43374848 4.352655360000001 11.72527104 4.737792000000001s8.5993472 -0.51147776 12.381429760000001 -2.57369088c3.78208256 -2.0642508800000003 6.867251200000001 -5.202401280000001 8.86629376 -9.01912576 1.9970048000000002 -3.81672448 2.8182220800000004 -8.1408512 2.35972608 -12.424222720000001 -0.29955072 -2.84675072 -1.1574476800000002 -5.60587776 -2.5268224 -8.1204736 -1.36937472 -2.51459584 -3.22169856 -4.73371648 -5.44897024 -6.5310208 -2.22930944 -1.79526656 -4.79077376 -3.13407488 -7.53767424 -3.9389900800000004 -2.7469004800000003 -0.8049152 -5.626255360000001 -1.0596352 -8.47096832 -0.7478579200000001Z" stroke-width="20.48"></path><path id="Vector_11" fill="#6153bd" d="M1316.1484288 1863.9186944c-4.28540928 0.45645824 -8.33851392 2.17225216 -11.64783616 4.9313792 -3.3093222399999997 2.7611648000000004 -5.726105600000001 6.44135936 -6.94264832 10.573936640000001 -1.21858048 4.1325772800000005 -1.18393856 8.53617664 0.101888 12.64837632 1.2837888000000002 4.11423744 3.7596672 7.753676800000001 7.1117824 10.45982208 3.35415296 2.7061452800000003 7.4357862400000005 4.35673088 11.727308800000001 4.743905280000001 4.291522560000001 0.38513664000000003 8.60138496 -0.50944 12.38550528 -2.57165312 3.78208256 -2.0642508800000003 6.867251200000001 -5.202401280000001 8.86629376 -9.02116352 1.9990425600000001 -3.81672448 2.82025984 -8.1408512 2.36176384 -12.426260480000002 -0.30362624 -2.8447129600000003 -1.1615232000000002 -5.59976448 -2.53089792 -8.11232256 -1.3673369600000003 -2.5105203200000004 -3.2176230400000003 -4.727603200000001 -5.44285696 -6.52286976 -2.2252339200000004 -1.79730432 -4.78466048 -3.1361126400000003 -7.52748544 -3.9430656 -2.74282496 -0.80695296 -5.62014208 -1.06574848 -8.462817280000001 -0.7600844800000001Z" stroke-width="20.48"></path><path id="Vector_12" fill="#6153bd" d="M1115.10098944 1585.5403008000003c-4.28540928 0.45645824 -8.33851392 2.17225216 -11.64783616 4.933416960000001 -3.3093222399999997 2.75912704 -5.726105600000001 6.4393216 -6.94264832 10.57189888 -1.21858048 4.13461504 -1.1819008000000002 8.53617664 0.101888 12.64837632 1.2837888000000002 4.11423744 3.7596672 7.753676800000001 7.11382016 10.45982208 3.3521152000000005 2.7061452800000003 7.43374848 4.35673088 11.72527104 4.743905280000001 4.291522560000001 0.38717440000000003 8.60138496 -0.50944 12.38550528 -2.57165312 3.78208256 -2.0642508800000003 6.86928896 -5.202401280000001 8.86629376 -9.02116352 1.9990425600000001 -3.81672448 2.82025984 -8.1408512 2.36176384 -12.426260480000002 -0.30158848000000005 -2.8426752000000004 -1.1615232000000002 -5.59976448 -2.53089792 -8.1102848 -1.3673369600000003 -2.5125580800000002 -3.2176230400000003 -4.72964096 -5.44285696 -6.52490752 -2.2252339200000004 -1.79730432 -4.78466048 -3.1361126400000003 -7.52748544 -3.9430656 -2.74282496 -0.80695296 -5.62014208 -1.06574848 -8.462817280000001 -0.7600844800000001Z" stroke-width="20.48"></path><path id="Vector_13" fill="#6153bd" d="M1563.20441344 1531.8045696000001c-4.28540928 0.45645824 -8.34055168 2.17428992 -11.649873920000001 4.93545472s-5.72406784 6.44135936 -6.9406105600000005 10.575974400000002c-1.21654272 4.13461504 -1.17986304 8.5382144 0.10596352 12.650414080000001 1.28582656 4.11423744 3.76374272 7.753676800000001 7.1199334400000005 10.45778432 3.3561907200000003 2.7061452800000003 7.437824 4.35469312 11.73138432 4.737792000000001 4.291522560000001 0.38513664000000003 8.603422720000001 -0.51351552 12.38550528 -2.57980416 3.78208256 -2.0662886400000002 6.86521344 -5.20851456 8.86221824 -9.02931456 1.9949670400000001 -3.8187622400000003 2.81414656 -8.14492672 2.3495372800000003 -12.430336 -0.305664 -2.8426752000000004 -1.16559872 -5.59568896 -2.53497344 -8.10417152 -1.36937472 -2.5105203200000004 -3.2196608 -4.7255654400000005 -5.44489472 -6.518794240000001 -2.2252339200000004 -1.7932288 -4.78262272 -3.13203712 -7.525447680000001 -3.9369523200000005 -2.74282496 -0.80695296 -5.61606656 -1.0637107200000002 -8.45874176 -0.75804672Z" stroke-width="20.48"></path><path id="Vector_14" fill="#6153bd" d="M1437.1506176 1708.1115648c-4.28540928 0.46053376 -8.33647616 2.1804032 -11.641722880000001 4.9436057600000005 -3.3072844800000003 2.7632025600000003 -5.71999232 6.4454348800000005 -6.93449728 10.58004992 -1.2124672 4.13461504 -1.17374976 8.53617664 0.11615232 12.64837632 1.2878643200000002 4.112199680000001 3.76578048 7.749601280000001 7.1219712 10.45167104 3.3561907200000003 2.7041075200000004 7.437824 4.3506176000000005 11.72934656 4.73371648 4.29356032 0.38106112000000003 8.60138496 -0.51759104 12.383467520000002 -2.58387968 3.7800448 -2.0662886400000002 6.86317568 -5.20851456 8.85814272 -9.027276800000001 1.9970048000000002 -3.8187622400000003 2.81414656 -8.14492672 2.35157504 -12.42829824 -0.30158848000000005 -2.8447129600000003 -1.16356096 -5.60180224 -2.53293568 -8.114360320000001 -1.36937472 -2.5105203200000004 -3.22169856 -4.727603200000001 -5.451008000000001 -6.52286976 -2.22727168 -1.79526656 -4.78669824 -3.13203712 -7.53359872 -3.93491456 -2.74486272 -0.8028774399999999 -5.624217600000001 -1.05759744 -8.4668928 -0.7458201600000001Z" stroke-width="20.48"></path><path id="Vector_15" fill="#6153bd" d="M1663.3399398400002 1790.0702720000002c-4.28337152 0.45645824 -8.33851392 2.17225216 -11.64783616 4.9313792 -3.3093222399999997 2.7611648000000004 -5.72406784 6.44135936 -6.94264832 10.573936640000001 -1.21654272 4.13461504 -1.1819008000000002 8.53617664 0.101888 12.64837632 1.28582656 4.11423744 3.7596672 7.753676800000001 7.11382016 10.45982208 3.35415296 2.7061452800000003 7.43374848 4.35673088 11.72527104 4.743905280000001 4.29356032 0.38717440000000003 8.603422720000001 -0.50944 12.38550528 -2.57165312 3.7841203200000004 -2.0642508800000003 6.86928896 -5.202401280000001 8.86833152 -9.02116352 1.9990425600000001 -3.81672448 2.82025984 -8.1408512 2.35972608 -12.426260480000002 -0.30158848000000005 -2.8447129600000003 -1.1615232000000002 -5.59976448 -2.5288601600000002 -8.11232256 -1.36937472 -2.5105203200000004 -3.2196608 -4.727603200000001 -5.44489472 -6.52286976 -2.2252339200000004 -1.79730432 -4.78262272 -3.1361126400000003 -7.525447680000001 -3.9430656 -2.74486272 -0.80695296 -5.62014208 -1.06574848 -8.46485504 -0.7600844800000001Z" stroke-width="20.48"></path><path id="Vector_16" fill="#6153bd" d="M1757.2806758400002 1415.0409216c-4.28337152 0.45645824 -8.33851392 2.17225216 -11.64783616 4.9313792 -3.3093222399999997 2.7611648000000004 -5.72406784 6.44135936 -6.94264832 10.573936640000001 -1.21858048 4.13461504 -1.1819008000000002 8.53617664 0.101888 12.64837632 1.28582656 4.11423744 3.7596672 7.753676800000001 7.11382016 10.45982208 3.35415296 2.7061452800000003 7.43374848 4.35673088 11.72527104 4.743905280000001 4.291522560000001 0.38717440000000003 8.603422720000001 -0.50944 12.38550528 -2.57165312 3.7841203200000004 -2.0642508800000003 6.86928896 -5.202401280000001 8.86833152 -9.02116352 1.9990425600000001 -3.81672448 2.82025984 -8.1408512 2.35972608 -12.426260480000002 -0.2649088 -2.8589772800000004 -1.1003904 -5.6344064000000005 -2.45753856 -8.16530432 -1.3551104 -2.5288601600000002 -3.20539648 -4.76224512 -5.4387814400000005 -6.56566272 -2.2354227200000003 -1.8013798400000003 -4.80707584 -3.1381504000000002 -7.568240640000001 -3.93083904 -2.75912704 -0.7906508800000001 -5.64867072 -1.0209177600000001 -8.49949696 -0.6765363200000001Z" stroke-width="20.48"></path><path id="Vector_17" fill="#6153bd" d="M1959.8768128000002 1780.7780864c-4.28540928 0.45645824 -8.34055168 2.17225216 -11.649873920000001 4.9313792 -3.3072844800000003 2.7611648000000004 -5.72406784 6.44135936 -6.94264832 10.573936640000001 -1.21654272 4.13461504 -1.1819008000000002 8.53617664 0.101888 12.64837632 1.28582656 4.11423744 3.7596672 7.753676800000001 7.11382016 10.45982208 3.35415296 2.7061452800000003 7.43374848 4.35673088 11.727308800000001 4.743905280000001 4.291522560000001 0.38717440000000003 8.60138496 -0.50944 12.383467520000002 -2.57165312 3.7841203200000004 -2.0642508800000003 6.86928896 -5.202401280000001 8.86833152 -9.02116352 1.9990425600000001 -3.81672448 2.82025984 -8.1408512 2.35972608 -12.426260480000002 -0.6154035200000001 -5.74036992 -3.4845696000000004 -11.003904000000002 -7.977830400000001 -14.62907904 -4.4932608 -3.6272128 -10.24381952 -5.32059136 -15.98418944 -4.7092633600000005Z" stroke-width="20.48"></path><path id="Vector_18" fill="#6153bd" d="M1960.6511616 1577.7968128c2.8447129600000003 -0.29955072 5.60180224 -1.1574476800000002 8.114360320000001 -2.52478464 2.5125580800000002 -1.3673369600000003 4.73167872 -3.2176230400000003 6.528983040000001 -5.44285696 1.79526656 -2.22727168 3.13407488 -4.78669824 3.94102784 -7.53156096 0.8049152 -2.74486272 1.06167296 -5.62014208 0.7539712 -8.46485504 -0.7600844800000001 -5.62217984 -3.68427008 -10.72676864 -8.14900224 -14.22764032 -4.46473216 -3.5008716800000004 -10.12155392 -5.120890880000001 -15.7620736 -4.51567616 -5.64255744 0.6052147200000001 -10.824581120000001 3.3887948800000003 -14.44568064 7.75775232 -3.62109952 4.36691968 -5.39598848 9.974835200000001 -4.94564352 15.63165696 0.29955072 2.8447129600000003 1.1574476800000002 5.60180224 2.52478464 8.11232256 1.36937472 2.5125580800000002 3.2176230400000003 4.72964096 5.44489472 6.52286976 2.22727168 1.79526656 4.78466048 3.13407488 7.5295232 3.9369523200000005 2.74486272 0.8028774399999999 5.62217984 1.05759744 8.46485504 0.7458201600000001Z" stroke-width="20.48"></path><path id="Vector_19" fill="#6153bd" d="M2196.8886784 1826.7907072000003c-4.279296 0.45645824 -8.3344384 2.17225216 -11.6559872 4.933416960000001 -3.3011712 2.75912704 -5.726105600000001 6.4393216 -6.928384000000001 10.57189888 -1.222656 4.13461504 -1.1819008000000002 8.53617664 0.101888 12.64837632 1.2837888000000002 4.11423744 3.7494784 7.753676800000001 7.1117824 10.45982208 3.3419264 2.7061452800000003 7.437824 4.35673088 11.71712 4.743905280000001 4.2996736 0.38717440000000003 8.5993472 -0.50944 12.389580800000001 -2.57165312 3.7902336 -2.0642508800000003 6.867251200000001 -5.202401280000001 8.864256000000001 -9.02116352 1.9970048000000002 -3.81672448 2.8121088000000003 -8.1408512 2.3638016000000004 -12.426260480000002 -0.305664 -2.8447129600000003 -1.1615232000000002 -5.59976448 -2.5268224 -8.11232256 -1.3652992000000002 -2.5105203200000004 -3.2196608 -4.727603200000001 -5.440819200000001 -6.52286976 -2.241536 -1.79730432 -4.788736 -3.1361126400000003 -7.539712000000001 -3.9430656 -2.7305984000000003 -0.80695296 -5.624217600000001 -1.06574848 -8.456704 -0.7600844800000001Z" stroke-width="20.48"></path><path id="Vector_20" fill="#6153bd" d="M2223.9501312 1596.381184c-4.279296 0.45645824 -8.3344384 2.17428992 -11.6559872 4.93545472 -3.3011712 2.7611648000000004 -5.726105600000001 6.44135936 -6.928384000000001 10.575974400000002 -1.222656 4.13461504 -1.1819008000000002 8.5382144 0.101888 12.652451840000001 1.2837888000000002 4.112199680000001 3.7698560000000003 7.751639040000001 7.1117824 10.45778432 3.3623040000000004 2.7041075200000004 7.437824 4.352655360000001 11.7374976 4.737792000000001 4.2996736 0.38309888000000003 8.5993472 -0.51555328 12.389580800000001 -2.5818419200000005 3.7698560000000003 -2.0662886400000002 6.867251200000001 -5.20851456 8.864256000000001 -9.027276800000001 1.9970048000000002 -3.8208 2.8121088000000003 -8.14696448 2.343424 -12.43237376 -0.305664 -2.8426752000000004 -1.1615232000000002 -5.597726720000001 -2.5268224 -8.10824704 -1.3652992000000002 -2.5105203200000004 -3.2196608 -4.7255654400000005 -5.440819200000001 -6.520832 -2.241536 -1.79526656 -4.788736 -3.13203712 -7.539712000000001 -3.9369523200000005 -2.7305984000000003 -0.8049152 -5.624217600000001 -1.0596352 -8.456704 -0.7519334400000001Z" stroke-width="20.48"></path><path id="Vector_21" fill="#6153bd" d="M2417.2520448 1519.0481920000002c-0.4483072 -4.28540928 -2.1804032 -8.33851392 -4.9313792 -11.64783616 -2.7713536000000003 -3.3093222399999997 -6.4393216 -5.726105600000001 -10.575974400000002 -6.94264832 -4.1366528 -1.21858048 -8.5382144 -1.1819008000000002 -12.6544896 0.101888s-7.743488 3.7596672 -10.453708800000001 7.11382016c-2.7102208 3.3521152000000005 -4.3608064 7.43374848 -4.747980800000001 11.72527104 -0.38717440000000003 4.291522560000001 0.50944 8.60138496 2.5675776000000003 12.38550528 2.0785152 3.78208256 5.216665600000001 6.86928896 9.027276800000001 8.86833152 3.8106112000000003 1.9970048000000002 8.15104 2.82025984 12.430336 2.35972608 2.8528640000000003 -0.30158848000000005 5.603840000000001 -1.1615232000000002 8.1102848 -2.53089792 2.5064448 -1.3673369600000003 4.727603200000001 -3.2176230400000003 6.520832 -5.44285696 1.7932288 -2.2252339200000004 3.1381504000000002 -4.78262272 3.9532544000000005 -7.52748544 0.7947264 -2.74282496 1.0596352 -5.6181043200000005 0.7539712 -8.462817280000001Z" stroke-width="20.48"></path><path id="Vector_22" fill="#6153bd" d="M3062.5291263999998 309.29121280000004c-2.3638016000000004 -29.97748736 -15.3239552 -58.13321728 -36.577792 -79.40335616 -21.2742144 -21.27013888 -49.41568 -34.26085888 -79.3911296 -36.637702144 -29.975449600000005 -2.3770470400000003 -59.80825600000001 6.016078848 -84.159488 23.671435264000003 -24.351232000000003 17.65311488 -41.5906816 43.41243904 -48.6413312 72.64410624000001 -34.9272064 -16.25521152 -73.461248 -23.242690560000003 -111.87302400000002 -20.28793856 -38.411776 2.954752 -75.39712 15.751884800000001 -107.43070720000001 37.1585536s-58.015027200000006 50.699468800000005 -75.43787520000001 85.06017792 -25.6961536 72.62780416 -24.045568 111.11701504c46.562816000000005 -12.62188544 94.42979840000001 -19.89057536 142.6432 -21.6613888 2.6083328000000003 15.83747072 6.215168 31.491543040000003 10.8205056 46.86848 4.2589184 9.6589824 10.8205056 10.433331200000001 22.415360000000003 -7.3563136 25.920307200000003 -37.494784 78.4945152 20.4998656 17.015296 65.3509632 26.531635200000004 45.92295936 60.2361856 87.30375168 99.85024000000001 122.571264 48.559820800000004 -15.641845759999999 90.374656 -47.294371840000004 118.6180096 -89.78574336000001 28.222976000000003 -42.48933376000001 41.2035072 -93.30087936 36.8223232 -144.12872704 -0.7947264 -9.32682752 -2.1600256 -18.59456 -4.07552 -27.754291200000004 2.7917312000000005 0.01426432 5.5630848 -0.1426432 8.3344384 -0.4686848 16.5466112 -1.4345830400000001 32.6652928 -6.1132800000000005 47.39829760000001 -13.77321984 14.7533824 -7.657902080000001 27.835801600000003 -18.1462528 38.513664 -30.86391296 10.69824 -12.717660160000001 18.7881472 -27.41602304 23.780659200000002 -43.25756928 5.0128896 -15.839508480000001 6.8468736 -32.5124608 5.4204416 -49.06314752000001Z" stroke-width="20.48"></path><path id="Vector_23" fill="#6153bd" d="m1424.0070656 2346.4195072 4.2589184 156.90752 55.223296000000005 -49.863987200000004c-24.082247680000002 -33.154355200000005 -44.0563712 -69.08006400000001 -59.482214400000004 -107.04353280000001Z" stroke-width="20.48"></path><path id="Vector_24" fill="#6153bd" d="m1778.9441024000002 1630.004224 54.89521664000001 78.1073408 3.0973952000000002 100.1355264 -57.99261184 -178.2428672Z" stroke-width="20.48"></path><path id="Vector_25" fill="#6153bd" d="M1684.2066022400002 1100.7164416c6.72664576 -1.2308070400000002 12.793057280000001 -4.81726464 17.117184 -10.11340288 4.324126720000001 -5.298176000000001 6.62272 -11.95961344 6.48211456 -18.796298240000002 -0.13856768 -6.8366848000000005 -2.7061452800000003 -13.40030976 -7.2442368 -18.51712512 -4.53605376 -5.1147776 -10.74510848 -8.450590720000001 -17.516584960000003 -9.40630016 5.2370432000000005 -3.8269132800000003 9.03339008 -9.30644992 10.77771264 -15.55422208 1.74432256 -6.24777216 1.3326950400000002 -12.901058560000001 -1.16763648 -18.88799744 -2.50033152 -5.984901120000001 -6.94264832 -10.95499776 -12.61169664 -14.10741248 -5.66904832 -3.1524147200000003 -12.234711040000002 -4.30578688 -18.63939072 -3.2706048 3.2807936000000004 -5.44693248 4.672583680000001 -11.825121280000001 3.96140544 -18.14421504 -0.7132160000000001 -6.31909376 -3.48864512 -12.226560000000001 -7.90039552 -16.80744448s-10.21121536 -7.578429440000001 -16.49770496 -8.5280256c-6.28852736 -0.9495961600000001 -12.71358464 0.20173824 -18.28074496 3.2746803200000003 1.33065728 -6.486190080000001 0.39940096 -13.23117568 -2.64093696 -19.1141888 -3.0383001600000004 -5.880975360000001 -8.00228352 -10.545408 -14.062581760000002 -13.21079808 -6.06029824 -2.6674278399999998 -12.850114560000002 -3.1768678400000003 -19.24052992 -1.4427340800000001 -6.39041536 1.7320960000000003 -11.99425536 5.60180224 -15.876188160000002 10.965186560000001 -0.6255923200000001 -6.969139200000001 -3.66185472 -13.50219776 -8.58712064 -18.4722944s-11.429795839999999 -8.06545408 -18.39485952 -8.75421696c-6.963025920000001 -0.6867251200000001 -13.948467200000001 1.07593728 -19.74996992 4.98436096 -5.803540480000001 3.9104614399999997 -10.06042112 9.72215296 -12.03704832 16.4345344 -2.7346739200000005 -6.0215808 -7.4480128 -10.924431360000002 -13.3575168 -13.89344768 -5.909504 -2.96901632 -12.65652736 -3.8248755200000004 -19.120302080000002 -2.4249344 -6.46377472 1.4019788800000001 -12.25101312 4.97417216 -16.40193024 10.12359168 -4.1488793600000005 5.1494195199999995 -6.408755200000001 11.564288000000001 -6.404679680000001 18.1768192 -4.825415680000001 -4.1488793600000005 -10.879600640000001 -6.59622912 -17.231298560000003 -6.96506368 -6.351697919999999 -0.37087232000000003 -12.64837632 1.3571481600000002 -17.922099199999998 4.91711488 -5.273722879999999 3.5599667200000003 -9.2310528 8.75421696 -11.26473728 14.783948800000001 -2.03164672 6.02973184 -2.0255334400000002 12.55871488 0.01833984 18.584371200000003 -6.01342976 -2.23746048 -12.60150784 -2.4065945600000003 -18.72090112 -0.47683584 -6.119393280000001 1.9297587200000001 -11.41960704 5.84633344 -15.0590464 11.130245120000001 -3.6414771200000002 5.28391168 -5.41432832 11.63153408 -5.03938048 18.036213760000003 0.3769856 6.404679680000001 2.87935488 12.501657600000001 7.1117824 17.32299776 -6.82242048 -0.37494784000000003 -13.55925504 1.67503872 -19.018414080000003 5.78520064 -5.45712128 4.11016192 -9.288110080000001 10.0155904 -10.81439232 16.67702784 -1.52628224 6.65939968 -0.65004544 13.64484096 2.4758784 19.72144128 3.12388608 6.07863808 8.29572096 10.85514752 14.600550400000001 13.48793344 -6.702192640000001 1.2980531200000003 -12.725811200000003 4.933416960000001 -16.99695616 10.25808384 -4.27114496 5.32466688 -6.51471872 11.992217600000002 -6.32928256 18.81463808 0.18747392000000002 6.82445824 2.78969344 13.36159232 7.344087040000001 18.44376576 4.55643136 5.0842112 10.76752384 8.3853824 17.530849279999998 9.31663872 -5.12700416 3.89008384 -8.80516096 9.38184704 -10.44963328 15.603128320000001 -1.64447232 6.223319040000001 -1.15948544 12.815472640000001 1.3754880000000003 18.729052160000002 2.53497344 5.91561728 6.97729024 10.81235456 12.61577216 13.90974976 5.64051968 3.0994329600000006 12.155238400000002 4.22223872 18.50693632 3.19113216 -3.20539648 5.47342336 -4.519751680000001 11.849574400000002 -3.7413273600000005 18.14421504 0.7763865600000001 6.294640640000001 3.60479744 12.15931392 8.04507648 16.68721664 4.44027904 4.52790272 10.247895040000001 7.47042816 16.5262336 8.37111808 6.27833856 0.90272768 12.67894272 -0.28732416 18.213498880000003 -3.38471936 -1.27971328 6.47192576 -0.30362624 13.186344960000001 2.7632025600000003 19.02656512 3.0668288 5.84022016 8.04303872 10.453708800000001 14.09518592 13.0722304 6.05418496 2.62055936 12.82362368 3.0892441600000002 19.18143488 1.3265817600000003 6.35577344 -1.7626624 11.91885824 -5.646632960000001 15.76003584 -11.010017280000001 0.33623040000000004 4.82745344 1.8645504000000002 9.495961600000001 4.4484300800000005 13.58778368 2.58387968 4.09182208 6.1438464 7.47654144 10.35793408 9.85460736 4.21612544 2.37602816 8.953917440000001 3.6700057600000004 13.79155968 3.76578048 4.83968 0.09373696000000001 9.62434048 -1.0127667200000001 13.93012736 -3.2237363200000004 3.4845696000000004 -4.2589184 50.944 -62.6407424 67.6740096 -83.91495680000001 -40.9793536 -46.3794176 -6.969139200000001 -76.5382656 15.079424000000001 -45.992243200000004 11.5948544 16.6281216 28.52864 11.9820288 18.543616 -37.5151616 12.81139712 -5.57123584 25.086863360000002 -12.295843840000002 36.679680000000005 -20.0923136 8.15104 31.2999936 14.26432 57.9946496 19.3179648 80.41000960000001 5.870786560000001 -1.53647104 11.11190528 -4.87228416 14.991800320000001 -9.538754560000001s6.20294144 -10.42925568 6.643097600000001 -16.48140288c0.44015616 -6.0521472 -1.02499328 -12.090030080000002 -4.1875968 -17.26797824s-7.86779136 -9.23716608 -13.45329152 -11.60911872Z" stroke-width="20.48"></path></g><g id="outlines"><path id="Vector_26" stroke="#eef5f5" stroke-linecap="round" stroke-linejoin="round" d="M1680.336896 1155.6136960000001c-5.0128896 -22.415360000000003 -11.207680000000002 -49.0896384 -19.3179648 -80.41000960000001 -11.59281664 7.79646976 -23.868282880000002 14.52107776 -36.679680000000005 20.0923136 10.0665344 49.4971904 -6.826496000000001 54.041395200000004 -18.543616 37.5151616 -21.804032000000003 -30.729420800000003 -56.0587776 -0.38717440000000003 -15.079424000000001 45.992243200000004 -16.6281216 21.2742144 -64.18944 79.6560384 -67.6740096 83.91495680000001 -4.30578688 2.2109696000000003 -9.09044736 3.31747328 -13.93012736 3.2237363200000004 -4.83764224 -0.09577472000000001 -9.57543424 -1.38975232 -13.79155968 -3.76578048 -4.2140876800000004 -2.37806592 -7.774054400000001 -5.76482304 -10.35793408 -9.85460736 -2.58387968 -4.09182208 -4.112199680000001 -8.76033024 -4.4484300800000005 -13.58778368 -3.8411776000000004 5.36134656 -9.4042624 9.24735488 -15.76003584 11.010017280000001 -6.3578112 1.76062464 -13.12724992 1.2939776 -19.17939712 -1.3265817600000003 -6.05418496 -2.62055936 -11.030394880000001 -7.234048 -14.09722368 -13.074268159999999 -3.0668288 -5.8381824 -4.04291584 -12.552601600000001 -2.7632025600000003 -19.02452736 -5.53455616 3.0973952000000002 -11.935160320000001 4.28540928 -18.213498880000003 3.38471936 -6.27833856 -0.9006899200000001 -12.08595456 -3.84321536 -16.5262336 -8.37111808 -4.44027904 -4.5299404800000005 -7.268689920000001 -10.392576 -8.04507648 -16.68721664 -0.77842432 -6.294640640000001 0.53593088 -12.67079168 3.7413273600000005 -18.14421504 -6.351697919999999 1.03110656 -12.86641664 -0.0916992 -18.50693632 -3.19113216 -5.63848192 -3.0994329600000006 -10.08079872 -7.9961702400000005 -12.61577216 -13.90974976 -2.53497344 -5.913579520000001 -3.01996032 -12.50777088 -1.3754880000000003 -18.729052160000002s5.32262912 -11.71304448 10.44963328 -15.603128320000001c-6.76332544 -0.93125632 -12.974417920000002 -4.23242752 -17.530849279999998 -9.31663872 -4.5543936 -5.0842112 -7.15661312 -11.619307520000001 -7.344087040000001 -18.44376576 -0.18543616000000002 -6.82242048 2.0581376000000002 -13.492008960000001 6.32928256 -18.816675840000002 4.27114496 -5.32262912 10.29476352 -8.95799296 16.99695616 -10.256046079999999 -6.304829440000001 -2.6327859200000003 -11.476664320000001 -7.411333120000001 -14.602588160000002 -13.48793344 -3.12388608 -6.076600320000001 -4.00012288 -13.0620416 -2.47384064 -19.72144128 1.52628224 -6.661437440000001 5.3572710400000005 -12.568903680000002 10.81439232 -16.6790656 5.459159040000001 -4.10812416 12.195993600000001 -6.158110720000001 19.018414080000003 -5.78316288 -4.23242752 -4.82134016 -6.73683456 -10.918318080000002 -7.1117824 -17.32299776 -0.37494784000000003 -6.40671744 1.39790336 -12.75433984 5.03938048 -18.036213760000003 3.6394393600000003 -5.28391168 8.939653120000001 -9.2004864 15.0590464 -11.130245120000001s12.707471360000001 -1.7626624 18.72090112 0.47683584c-1.98477824 -6.00935424 -1.95217408 -12.501657600000001 0.09577472000000001 -18.490634240000002 2.0479488000000003 -5.98693888 5.995089920000001 -11.14247168 11.24435968 -14.677985280000001 5.247232 -3.5355136 11.50723072 -5.2574208 17.82632448 -4.90692608 6.31909376 0.35253248 12.3488256 2.7611648000000004 17.17220352 6.857062400000001 -0.00407552 -6.6125312 2.25580032 -13.02943744 6.404679680000001 -18.17885696 4.15091712 -5.14738176 9.93815552 -8.7216128 16.40193024 -10.12155392 6.46377472 -1.39994112 13.21079808 -0.54611968 19.120302080000002 2.4228966400000003 5.909504 2.96901632 10.62284288 7.873904640000001 13.3575168 13.89548544 1.9766272000000003 -6.712381440000001 6.233507840000001 -12.524072960000002 12.03704832 -16.4345344 5.80150272 -3.9104614399999997 12.786944 -5.67312384 19.74996992 -4.98436096 6.96506368 0.68876288 13.469593600000001 3.7841203200000004 18.39485952 8.75421696 4.92526592 4.97009664 7.96152832 11.5031552 8.58712064 18.4722944 3.8819328000000004 -5.36338432 9.485772800000001 -9.23309056 15.876188160000002 -10.967224320000001 6.39041536 -1.7320960000000003 13.180231680000002 -1.222656 19.24052992 1.4447718400000003 6.06029824 2.6653900800000003 11.024281600000002 7.32778496 14.062581760000002 13.21079808 3.0403379200000002 5.88301312 3.97159424 12.62799872 2.64093696 19.1141888 5.56716032 -3.07294208 11.992217600000002 -4.22427648 18.28074496 -3.2746803200000003 6.2864896 0.9495961600000001 12.08595456 3.9471411200000004 16.49770496 8.5280256 4.4117504 4.58088448 7.187179520000001 10.488350720000001 7.90039552 16.80744448 0.7111782400000001 6.31909376 -0.68061184 12.69728256 -3.96140544 18.14421504 6.404679680000001 -1.03518208 12.9703424 0.11615232 18.63939072 3.2685670399999998 5.66904832 3.1524147200000003 10.11136512 8.12251136 12.61169664 14.109450240000001 2.50033152 5.984901120000001 2.91195904 12.63818752 1.16763648 18.88799744 -1.7422848000000002 6.24777216 -5.540669439999999 11.727308800000001 -10.77771264 15.55422208 6.7714764800000005 0.95570944 12.980531200000001 4.2894848 17.516584960000003 9.40630016 4.53605376 5.11681536 7.105669120000001 11.68044032 7.2442368 18.51508736 0.14060544 6.8366848000000005 -2.15798784 13.500160000000001 -6.48211456 18.798336 -4.324126720000001 5.29613824 -10.390538240000001 8.88055808 -17.117184 10.11340288 5.54882048 2.38621696 10.21732864 6.44135936 13.3575168 11.600967680000002 3.1381504000000002 5.15960832 4.59311104 11.171000320000001 4.16110592 17.19461888 -0.43200512 6.02565632 -2.7305984000000003 11.76602624 -6.57381376 16.424345600000002 -3.84525312 4.66035712 -9.04561664 8.006359040000001 -14.87768576 9.57543424Z" stroke-width="20.48"></path><path id="Vector_27" stroke="#eef5f5" stroke-linecap="round" stroke-linejoin="round" d="m1684.9829888000002 997.0963456 103.620096 -8.4974592c12.37124096 -1.0800128 24.83214336 0.29547520000000005 36.6694912 4.0510668800000005 11.83734784 3.7535539200000003 22.81476096 9.8118144 32.30053376 17.82428672 9.485772800000001 8.01451008 17.294469120000002 17.82428672 22.975744 28.864870400000004 5.68127488 11.042621440000001 9.12101376 23.10004736 10.12562944 35.47740160000001l28.222976000000003 339.0628864" stroke-width="20.48"></path><path id="Vector_28" stroke="#eef5f5" stroke-linecap="round" stroke-linejoin="round" d="m1840.7901184000002 1802.8266496 15.853772800000002 -1.1615232000000002c13.840465920000002 -0.15486976 27.36100352 -4.17129472 39.0434816 -11.5948544" stroke-width="20.48"></path><path id="Vector_29" stroke="#eef5f5" stroke-linecap="round" stroke-linejoin="round" d="m1123.213312 1863.0628352000003 -207.99416320000003 17.7896448c-24.960522240000003 2.088704 -49.72745728 -5.8178048 -68.86406144 -21.97927936 -19.1345664 -16.163512320000002 -31.069726720000002 -39.25948416000001 -33.18695936 -64.21796864000001l-52.98176 -624.7975936c-2.0988928 -24.96867328 5.80557824 -49.747834880000006 21.973166080000002 -68.88851456 16.16758784 -19.14067968 39.277824 -31.07787776 64.24445952 -33.18288384l508.573952 -42.84797952" stroke-width="20.48"></path><path id="Vector_30" stroke="#eef5f5" stroke-linecap="round" stroke-linejoin="round" d="m1792.85996544 3073.6756736 1238.73596416 -104.39444480000002c33.826816 -2.8936192 65.1268096 -19.0938112 87.01235199999999 -45.0548736 21.905920000000002 -25.961062400000003 32.60416 -59.54334720000001 29.751296 -93.37016320000001l-71.9125504 -844.7737856000001c-2.8936192 -33.826816 -19.0938112 -65.11865856000001 -45.0548736 -87.01031424 -25.9406848 -21.891655680000003 -59.522969599999996 -32.59193344 -93.34978560000002 -29.75333376l-661.8644479999999 55.6919808" stroke-width="20.48"></path><path id="Vector_31" stroke="#eef5f5" stroke-linecap="round" stroke-linejoin="round" d="m1829.58040064 1962.8926976 205.6914944 -17.402470400000002" stroke-width="20.48"></path><path id="Vector_32" stroke="#eef5f5" stroke-linecap="round" stroke-linejoin="round" d="m2496.9080832 570.5728 -381.99848959999997 32.8690688c-34.988339200000006 3.90434816 -67.0015488 21.516707840000002 -89.03584768 48.97756160000001 -22.03022336 27.46289152 -32.280156160000004 62.534778880000005 -28.504186880000002 97.53738240000001l76.56068096 881.1274240000001" stroke-width="20.48"></path><path id="Vector_33" stroke="#eef5f5" stroke-linecap="round" stroke-linejoin="round" d="m2349.9855872000003 1760.2985984000002 1158.7110912 -100.1355264c25.716531200000002 -2.3230464000000004 50.1492736 -12.346787840000001 70.0785664 -28.765020160000002 19.9292928 -16.41619456 34.438144 -38.462720000000004 41.651814400000006 -63.26022144" stroke-width="20.48"></path><path id="Vector_34" stroke="#eef5f5" stroke-linecap="round" stroke-linejoin="round" d="m3583.3194496 1016.0475136 -34.417766400000005 -400.1549312c-2.3026688 -35.155435520000005 -18.441728 -67.96337152 -44.8918528 -91.23051520000001 -26.4705024 -23.26714368 -61.0716672 -35.09634048 -96.22302720000002 -32.889446400000004l-466.64704 40.2253824" stroke-width="20.48"></path><path id="Vector_35" stroke="#eef5f5" stroke-linecap="round" stroke-linejoin="round" d="M3159.1800832000004 1132.4239872c-39.8178304 62.620364800000004 -123.7124096 245.5093248 -172.4352512 364.1884672 93.533184 36.56148992 172.35374080000003 103.03525888000001 224.1536 189.06337280000002" stroke-width="20.48"></path><path id="Vector_36" stroke="#eef5f5" stroke-linecap="round" stroke-linejoin="round" d="M2536.3387392 1332.6950400000003c14.1420544 72.81527808000001 32.60416 144.72579072 55.28442880000001 215.3504768 -21.2742144 80.0228352 -29.771673600000003 151.1610368 -39.8178304 194.8506112" stroke-width="20.48"></path><path id="Vector_37" stroke="#eef5f5" stroke-linecap="round" stroke-linejoin="round" d="M2573.4463488 1034.9986816c-29.201100800000003 45.01615616 -46.2367744 96.82620416 -49.476812800000005 150.386688" stroke-width="20.48"></path><path id="Vector_38" stroke="#eef5f5" stroke-linecap="round" stroke-linejoin="round" d="M2986.3576576 1496.9996288c-109.02016 78.4945152 -315.0988288 120.22784000000001 -394.7344896 51.045888" stroke-width="20.48"></path><path id="Vector_39" stroke="#eef5f5" stroke-linecap="round" stroke-linejoin="round" d="M2936.8808448 1526.7713024000002c58.15767040000001 45.48076544 104.7612416 104.02561024 136.0612352 170.88655359999998" stroke-width="20.48"></path><path id="Vector_40" stroke="#eef5f5" stroke-linecap="round" stroke-linejoin="round" d="M2660.3160576 755.7848064c11.411456000000001 -24.25138176 18.1564416 -50.428446720000004 19.8885376 -77.1699712 -11.9820288 13.143552000000001 -23.230463999999998 24.269721600000004 -33.6841728 33.928704" stroke-width="20.48"></path><path id="Vector_41" stroke="#eef5f5" stroke-linecap="round" stroke-linejoin="round" d="m3103.8956544 1236.0440832 138.42503680000002 233.8940928c107.084288 194.09664 330.11712 255.14792960000003 470.13160960000005 -34.7845632 66.0845568 -136.8763392 97.4253056 -228.8812032 155.4199552 -324.00384 -94.8373504 -27.03699968 -181.1976192 -77.8729984 -250.84825600000002 -147.67646720000002 -64.3728384 96.88326144000001 -121.6135168 198.31072768 -171.29410560000002 303.48359680000004 -280.29388800000004 -595.7798912 -314.71165440000004 -490.73336320000004 -501.45198080000006 -501.0648064 -56.9757696 -1.5711129600000002 -111.8526464 -21.81218304 -156.19430400000002 -57.6074752" stroke-width="20.48"></path><path id="Vector_42" stroke="#eef5f5" stroke-linecap="round" stroke-linejoin="round" d="M2379.7572608 1240.6697984c55.28442880000001 -187.90184960000002 179.1394816 -274.75118080000004 233.50691840000002 -334.0296192 25.573888 -24.5346304 42.6299392 -56.63138816000001 48.600576 -91.56878336 5.9910144 -34.93943296 0.611328 -70.87533056000001 -15.3443328 -102.52785664 -97.4253056 85.8304512 -151.1610368 17.402470400000002 -151.1610368 -209.88928" stroke-width="20.48"></path><path id="Vector_43" stroke="#eef5f5" stroke-linecap="round" stroke-linejoin="round" d="M2967.8140416 766.6664448c-77.4960128 62.278021120000005 -147.431936 133.40399616 -208.4017152 211.92704 -9.5570944 11.89440512 -22.0281856 21.109155840000003 -36.2109952 26.739486720000002s-29.5882752 7.486730240000001 -44.7084544 5.38579968c-15.099801600000001 -2.10093056 -29.4252544 -8.08583168 -41.5295488 -17.36986624 -12.1042944 -9.28403456 -21.600256 -21.551349760000004 -27.550515200000003 -35.601704960000006 -4.9721344 -11.615231999999999 -9.292185600000002 -22.415360000000003 -13.143552000000001 -32.8690688" stroke-width="20.48"></path><path id="Vector_44" stroke="#eef5f5" stroke-linecap="round" stroke-linejoin="round" d="m3445.6687616000004 1266.9569024 -45.992243200000004 103.620096" stroke-width="20.48"></path><path id="Vector_45" stroke="#eef5f5" stroke-linecap="round" stroke-linejoin="round" d="M1522.9810688 1262.7183616c-54.041395200000004 69.28384 -92.2901504 64.73963520000001 -194.0762624 110.18168320000001 -207.240192 92.41241600000001 -136.1019904 462.7956736 -136.1019904 462.7956736" stroke-width="20.48"></path><path id="Vector_46" stroke="#eef5f5" stroke-linecap="round" stroke-linejoin="round" d="M1680.336896 1155.6136960000001c16.8930304 78.31111680000001 15.364710400000002 108.28656640000001 4.2589184 124.4867584 -8.15104 12.0024064 -40.9793536 15.853772800000002 -70.75102720000001 15.853772800000002" stroke-width="20.48"></path><path id="Vector_47" stroke="#eef5f5" stroke-linecap="round" stroke-linejoin="round" d="M1688.1415168 1273.6000000000001c-10.8205056 22.415360000000003 -51.860992 0 -92.86072320000001 -29.771673600000003 7.743488 35.5792896 13.143552000000001 78.2092288 42.1408768 80.0228352 257.04304640000004 16.118681600000002 284.18600960000003 45.23827200000001 507.25959680000005 427.92960000000005" stroke-width="20.48"></path><path id="Vector_48" stroke="#eef5f5" stroke-linecap="round" stroke-linejoin="round" d="M2117.23264 1704.2398208c9.6589824 -27.0614528 69.589504 -150.4070656 104.39444480000002 -261.75027200000005 76.212224 -8.20402176 152.8116224 11.73342208 215.3504768 56.0587776 -23.984435200000004 113.66625280000001 -93.55356160000001 286.1218816 -153.5044608 412.8705536 -10.1888 21.422970879999998 -25.329356800000003 40.113305600000004 -44.17863680000001 54.528419840000005 -18.84928 14.41307648 -40.8367104 24.137267200000004 -64.18944 28.367656959999998 -23.332352 4.23242752 -47.3575424 2.84675072 -70.05818880000001 -4.03680256 -22.700646400000004 -6.8855910399999996 -43.44504320000001 -19.0734336 -60.5010944 -35.55687424 -100.09680896 -98.42177024000001 -189.03891968 -207.5764224 -265.214464 -325.49140480000005" stroke-width="20.48"></path><path id="Vector_49" stroke="#eef5f5" stroke-linecap="round" stroke-linejoin="round" d="m1779.71641344 1629.2298752000002 57.2203008 179.01721600000002" stroke-width="20.48"></path><path id="Vector_50" stroke="#eef5f5" stroke-linecap="round" stroke-linejoin="round" d="M1357.14816 1954.3952384000002c114.827776 36.679680000000005 311.2270848 22.802534400000003 464.73154560000006 -18.951168000000003 23.1897088 -45.6254464 13.5307264 -225.78380800000002 13.5307264 -225.78380800000002" stroke-width="20.48"></path><path id="Vector_51" stroke="#eef5f5" stroke-linecap="round" stroke-linejoin="round" d="M1355.9662592000002 1945.4902272c-49.476812800000005 71.1382016 -146.71872000000002 73.766912 -191.3864192 -0.38717440000000003 -56.2829312 -93.73696 -80.41000960000001 -227.33250560000002 -92.3920384 -375.80369920000004 0 0 87.62368000000001 -28.039577599999998 124.30336 -17.0560512" stroke-width="20.48"></path><path id="Vector_52" stroke="#eef5f5" stroke-linecap="round" stroke-linejoin="round" d="m1483.48928 2453.46304 -408.265216 361.498624c-27.00643328 23.7602816 -61.70541056 36.9242112 -97.67187456 37.066854400000004 -35.966464 0.1222656 -70.76529152 -12.7767552 -97.95308544 -36.3128832l-401.6628736 -347.4992128" stroke-width="20.48"></path><path id="Vector_53" stroke="#eef5f5" stroke-linecap="round" stroke-linejoin="round" d="m1017.6777216000002 2523.5008512000004 -303.8911488 -286.4886784" stroke-width="20.48"></path><path id="Vector_54" stroke="#eef5f5" stroke-linecap="round" stroke-linejoin="round" d="M1293.7126912 1566.6095104s67.24608 271.02208 63.0279168 394.7344896c-81.80383744000001 46.49760768 -145.01515264 119.8610432 -178.915328 207.6273664 -49.3749248 133.4121472 -220.383744 295.7604864 -220.383744 295.7604864" stroke-width="20.48"></path><path id="Vector_55" stroke="#eef5f5" stroke-linecap="round" stroke-linejoin="round" d="M1821.859328 1935.4440704c75.7639168 257.878528 83.30362880000001 429.96736000000004 88.52029440000001 679.6744704 4.1651814400000005 70.7917824 -5.52436736 141.7058304 -28.52864 208.78888960000003l-177.0609664 497.9674112000001c-108.29064192 -11.370700800000002 -212.38961152000002 -48.050380800000006 -303.8911488 -107.084288l177.081344 -507.25959680000005c3.41121024 -86.6455552 -25.657436160000003 -171.4367488 -81.5104 -237.7658368 -55.29257984 -67.34796800000001 -89.93246208 -149.26592000000002 -99.748352 -235.85034240000002" stroke-width="20.48"></path><path id="Vector_56" stroke="#eef5f5" stroke-linecap="round" stroke-linejoin="round" d="M1434.0736000000002 1331.5335168000001s61.846016000000006 68.04080640000001 208.768512 -7.3563136" stroke-width="20.48"></path><path id="Vector_57" stroke="#eef5f5" stroke-linecap="round" stroke-linejoin="round" d="M1102.7338240000001 1560.4147200000002c-1.20839168 -58.99111424 -7.81073408 -117.74584832000001 -19.7255168 -175.53264640000003 -11.40330496 -44.47614976 -27.7441024 -87.53605632 -48.7228416 -128.37888 -30.770176000000003 -59.9916544 -20.785152 -76.23260160000001 28.630528 -21.6410112 48.79823872 61.25710336 88.98694144000001 128.8985088 119.4534912 201.0454016" stroke-width="20.48"></path><path id="Vector_58" stroke="#eef5f5" stroke-linecap="round" stroke-linejoin="round" d="M1165.2115456 1397.6995840000002c24.555008000000004 27.835801600000003 39.2472576 -57.05728 48.478310400000005 -75.8454272 12.7563776 -25.8999296 28.52864 -54.102528 27.4486272 25.5331328 -0.305664 22.0281856 2.3230464000000004 57.2203008 5.8076159999999994 92.004864" stroke-width="20.48"></path><path id="Vector_59" stroke="#eef5f5" stroke-linecap="round" stroke-linejoin="round" d="M1059.81656064 1313.3566976c-11.207680000000002 -12.369203200000001 -36.679680000000005 -37.087232 -44.0767488 -44.0767488 -33.7860608 -32.3188736 -40.510668800000005 -20.9277952 -36.679680000000005 -14.26432 14.671872 25.716531200000002 42.181632 65.3305856 55.01952000000001 89.66144000000001 20.540620800000003 39.4102784 62.2331904 114.4406016 64.55623680000001 153.0969088" stroke-width="20.48"></path><path id="Vector_60" stroke="#eef5f5" stroke-linecap="round" stroke-linejoin="round" d="M1032.7571456 1342.3540224c-6.581964800000001 -4.6257152 -12.022784 -8.4363264 -15.079424000000001 -10.433331200000001 -39.1657472 -25.5331328 -43.302400000000006 -13.917900800000002 -38.71744 -8.15104 18.5639936 23.1897088 52.268544 57.5463424 68.83553280000001 79.6356608 19.450419200000002 27.214284799999998 36.27620352 56.21160960000001 50.2511616 86.60480000000001" stroke-width="20.48"></path><path id="Vector_61" stroke="#eef5f5" stroke-linecap="round" stroke-linejoin="round" d="M2418.82112 1485.7919488c20.7443968 -61.837864960000005 46.86848 -121.7357824 78.1073408 -178.99683840000003 26.4297472 -43.216814080000006 57.6889856 -83.29751552 93.1663872 -119.47386880000002 52.085145600000004 -52.98176 46.86848 -73.8484224 -23.1897088 -32.4818944 -71.46424320000001 48.806389759999995 -135.9797248 107.07206144000001 -191.7735936 173.20960000000002" stroke-width="20.48"></path><path id="Vector_62" stroke="#eef5f5" stroke-linecap="round" stroke-linejoin="round" d="M2407.6338176 1291.3692672c-39.0027264 29.078835200000004 -24.6161408 -70.2415872 -28.263731200000002 -93.6146944 -4.9110016000000005 -31.340748800000004 -11.9820288 -66.4921088 -37.1279872 18.1768192 -6.948761600000001 23.169331200000002 -35.1921152 94.9799936 -88.438784 224.60190720000003" stroke-width="20.48"></path><path id="Vector_63" stroke="#eef5f5" stroke-linecap="round" stroke-linejoin="round" d="M2544.449024 1238.7339264000002c15.853772800000002 -9.6589824 50.658713600000006 -27.0614528 60.704870400000004 -32.074342400000006 46.39979520000001 -23.2100864 49.436057600000005 -8.558592 43.689574400000005 -3.0973952000000002 -23.780659200000002 22.5987584 -65.69738240000001 55.325184 -86.9919744 76.92544000000001 -34.3566336 34.8660736 -102.8457472 100.5227008 -118.3123456 140.7480832" stroke-width="20.48"></path><path id="Vector_64" stroke="#eef5f5" stroke-linecap="round" stroke-linejoin="round" d="M2563.7873664 1278.5721344c8.4974592 -2.7102208 15.4665984 -5.0128896 19.3383424 -6.1132800000000005 49.558323200000004 -15.181312 50.230784 -0.4279296 43.302400000000006 4.2589184 -27.183718400000004 18.339840000000002 -73.8076672 43.7507072 -98.60720640000001 61.846016000000006 -29.343744 22.4255488 -56.50708480000001 47.53686528000001 -81.18435840000001 75.00994560000001" stroke-width="20.48"></path><path id="Vector_65" stroke="#eef5f5" stroke-linecap="round" stroke-linejoin="round" d="M571.8973440000001 2104.0075776000003C503.0821888 2005.1558400000001 81.244879872 2346.1749760000002 102.682115072 2459.06688c3.3215488000000004 17.4839808 18.441728 33.1339776 53.71535360000001 28.3452416C291.9702528 2469.0519040000004 622.739456 2177.1631616 571.8973440000001 2104.0075776000003Z" stroke-width="20.48"></path><path id="Vector_66" stroke="#eef5f5" stroke-linecap="round" stroke-linejoin="round" d="M571.8953062400001 2104.0075776000003c21.2538368 27.0614528 94.3279104 114.4406016 146.5353216 179.32288000000003" stroke-width="20.48"></path><path id="Vector_67" stroke="#eef5f5" stroke-linecap="round" stroke-linejoin="round" d="M1662.1804544000001 3316.4747776000004c-16.30208 61.45884160000001 -107.797504 196.3585536 -37.5151616 369.2217344 36.0072192 88.52029440000001 56.833126400000005 217.6123904 8.15104 250.0942848" stroke-width="20.48"></path><path id="Vector_68" stroke="#eef5f5" stroke-linecap="round" stroke-linejoin="round" d="M1342.0483583999999 3446.3819776000005c11.5744768 -26.083328 53.654220800000004 -121.24672000000001 91.2508928 -209.88928" stroke-width="20.48"></path><path id="Vector_69" stroke="#eef5f5" stroke-linecap="round" stroke-linejoin="round" d="M1354.41552384 3434.7667456000004c-86.4417792 41.1016192 144.3141632 463.692288 250.15541760000002 502.2467072 29.241856000000002 10.6574848 43.2208896 -10.1888 42.0593664 -41.22388480000001 -4.8091136 -129.11247360000002 -225.3966336 -492.730368 -292.214784 -461.0228224Z" stroke-width="20.48"></path><path id="Vector_70" stroke="#eef5f5" stroke-linecap="round" stroke-linejoin="round" d="M675.1302656 2230.0430336000004c5.30021376 -2.4045568 11.13432064 -3.4030592000000004 16.93582336 -2.8936192 5.80150272 0.50944 11.36866304 2.5268224 16.1594368 5.8483712 4.79077376 3.3011712 8.6401024 7.8046208 11.171000320000001 13.041664 2.53293568 5.2574208 3.6598169600000006 11.065036800000001 3.2746803200000003 16.8726528 -6.3985664 81.5104 -157.824512 221.13771520000003 -225.9060736 212.90516480000002 -20.3776 -2.4860672 -33.2969984 -16.8930304 -26.49088 -44.32128" stroke-width="20.48"></path><path id="Vector_71" stroke="#eef5f5" stroke-linecap="round" stroke-linejoin="round" d="m1680.68127744 3177.9274752 118.65876480000001 -375.29425920000006c20.5915648 -58.6467328 29.26630912 -120.81879040000001 25.5127552 -182.8685824 -16.444723200000002 -268.67865600000005 -36.3332608 -476.32640000000004 -84.66892800000001 -665.3693952000001" stroke-width="20.48"></path><path id="Vector_72" stroke="#eef5f5" stroke-linecap="round" stroke-linejoin="round" d="M1449.1326464 3076.3655168c87.76632320000002 66.7773952 194.06403584000003 104.740864 304.27832320000005 108.6533632" stroke-width="20.48"></path><path id="Vector_73" stroke="#eef5f5" stroke-linecap="round" stroke-linejoin="round" d="M592.37479424 2567.1904256c117.1508224 -37.5151616 182.88896 -122.2656 222.31961600000002 -232.75294720000002" stroke-width="20.48"></path><path id="Vector_74" stroke="#eef5f5" stroke-linecap="round" stroke-linejoin="round" d="m1424.0070656 2346.4195072 -329.0167296 291.5219456c-27.06349056 24.106700800000002 -62.00496128 37.494784 -98.24652288 37.637427200000005 -36.24359936 0.1426432 -71.2910336 -12.960153600000002 -98.53996032 -36.8630784l-173.59677440000002 -152.3429376" stroke-width="20.48"></path><path id="Vector_75" stroke="#eef5f5" stroke-linecap="round" stroke-linejoin="round" d="M1479.6786688 2057.220608c-5.0128896 0.7743488000000001 -12.369203200000001 98.22003200000002 0.7743488000000001 137.650688 25.14188288 34.743808 57.27939584000001 63.8633984 94.348288 85.44327679999999 21.2028928 -35.3143808 46.6545152 -67.9185408 75.78429440000001 -97.0381312 -3.871744 -49.11001600000001 -8.5178368 -75.00994560000001 -13.917900800000002 -126.83018240000001 -52.04846592 7.437824 -104.87128064000001 7.702732800000001 -156.9890304 0.7743488000000001v0Z" stroke-width="20.48"></path><path id="Vector_76" stroke="#eef5f5" stroke-linecap="round" stroke-linejoin="round" d="M1260.4768256000002 2037.5154688c19.8477824 0.2852864 39.33691904 5.3185536 56.833126400000005 14.6922496 -35.5792896 17.3820928 -71.525376 105.96352 -71.525376 105.96352l-79.26886400000001 37.902336000000005" stroke-width="20.48"></path><path id="Vector_77" stroke="#eef5f5" stroke-linecap="round" stroke-linejoin="round" d="M3775.8470144000003 774.3488c61.1328 19.3179648 95.12263680000001 50.638336 134.49216 100.9098752" stroke-width="20.48"></path><path id="Vector_78" stroke="#eef5f5" stroke-linecap="round" stroke-linejoin="round" d="M3760.7879680000005 803.0200831999999c21.3353472 21.65323776 37.9227136 47.514449920000004 48.702464000000006 75.93305088000001 10.779750400000001 28.418600960000003 15.507353600000002 58.77103616000001 13.917900800000002 89.12550912000002" stroke-width="20.48"></path><path id="Vector_79" stroke="#eef5f5" stroke-linecap="round" stroke-linejoin="round" d="M3878.3055872000004 837.0302976c23.7195264 -31.251087360000003 43.5673088 -65.26537728 59.095040000000004 -101.29704960000001 28.52864 -66.8792832 46.0126208 -48.3152896 30.158848000000003 15.079424000000001 -4.2589184 17.015296 -8.4974592 31.707545600000003 -12.369203200000001 44.0767488 -11.166924800000002 35.5792896 -22.170828800000002 71.5049984 -32.4818944 107.49184000000001 -10.942771200000001 38.2283776 -83.54816 199.8838784 -83.54816 199.8838784 -68.04080640000001 -18.1768192 -138.79183360000002 -67.653632 -194.0762624 -113.2790784 1.1615232000000002 -2.3230464000000004 30.5664 -56.4255744 31.687168 -58.38182400000001 5.9910144 -10.81439232 8.5382144 -23.197859840000003 7.2951808 -35.49574144 -1.2430336 -12.295843840000002 -6.215168 -23.92126464 -14.2439424 -33.31941376 -27.958067200000002 -33.5415296 -65.3917184 -83.54816 -52.98176 -97.0585088 19.256832 -20.9277952 80.0228352 49.84360960000001 112.5047296 54.143283200000006 11.5948544 1.5283200000000001 20.88704 -33.6434176 22.802534400000003 -46.39979520000001 3.5049471999999997 -23.1897088 15.711129600000001 -102.091776 16.6281216 -109.7945088 8.4159488 -71.68839679999999 34.030592 -59.54334720000001 33.6434176 3.8513664000000003 -0.38717440000000003 60.317696000000005 -0.38717440000000003 99.3611776 -0.38717440000000003 99.3611776" stroke-width="20.48"></path><path id="Vector_80" stroke="#eef5f5" stroke-linecap="round" stroke-linejoin="round" d="M3797.1212288 781.3586944000001s42.161254400000004 -132.2098688 44.83072000000001 -141.11488c20.968550399999998 -69.18195200000001 42.955980800000006 -53.3485568 32.4818944 8.8846336 -10.0257792 59.5637248 -20.88704 132.2302464 -20.88704 132.2302464" stroke-width="20.48"></path><path id="Vector_81" stroke="#eef5f5" stroke-linecap="round" stroke-linejoin="round" d="M3843.21536 802.6329088c20.173824 -40.43527168 37.983846400000004 -82.00761344 53.3485568 -124.50713600000002 25.064448000000002 -68.061184 43.4857984 -50.6790912 31.707545600000003 11.228057600000001 -6.4596992 38.48717312 -15.6296192 76.47101952 -27.4486272 113.66625280000001" stroke-width="20.48"></path><path id="Vector_82" stroke="#eef5f5" stroke-linecap="round" stroke-linejoin="round" d="M3422.0918784 1989.5669760000003c1.0596352 9.2310528 0.2649088 18.580295680000003 -2.3230464000000004 27.505684480000003 -2.5879552 8.9253888 -6.9080064000000005 17.251676160000002 -12.7156224 24.49795072 -5.8279936 7.2544256 -13.021286400000001 13.265817600000002 -21.1723264 17.708134400000002 -8.15104 4.4626944 -17.117184 7.2544256 -26.3482368 8.212172800000001 -9.2514304 0.9781248 -18.584371200000003 0.101888 -27.4893824 -2.5472 -8.9050112 -2.6694656 -17.1986944 -7.0506496 -24.391987200000003 -12.939776 -7.1932928 -5.8891264 -13.143552000000001 -13.123174400000002 -17.524736 -21.321082880000002 -4.381184 -8.19383296 -7.0914048 -17.17424128 -7.988019200000001 -26.42363392l-11.207680000000002 -105.96352c-1.7728512 -18.470256640000002 3.8106112000000003 -36.895682560000004 15.548108800000001 -51.265966080000005 11.757875199999999 -14.368245759999999 28.6916608 -23.51778816 47.1537664 -25.453660160000002 18.441728 -1.9379097600000001 36.9242112 3.49272064 51.3923072 15.109990400000001 14.468096 11.617269760000001 23.7602816 28.479733760000002 25.8591744 46.91738624l11.207680000000002 105.96352Z" stroke-width="20.48"></path><path id="Vector_83" stroke="#eef5f5" stroke-linecap="round" stroke-linejoin="round" d="m3224.9182208 1961.7311744 5.400064 52.1870336c1.6709632 16.04328448 6.500454400000001 31.6056576 14.1828096 45.7884672 7.682355200000001 14.1828096 18.0953088 26.7150336 30.6275328 36.8630784 12.5118464 10.1684224 26.939187200000003 17.748889600000002 42.385408000000005 22.3542272 15.4665984 4.584960000000001 31.687168 6.0929024 47.7243392 4.421939200000001 16.057548800000003 -1.6913408 31.6056576 -6.500454400000001 45.7884672 -14.1828096 14.1828096 -7.702732800000001 26.7150336 -18.0953088 36.883456 -30.6275328 10.148044800000001 -12.532224000000001 17.748889600000002 -26.939187200000003 22.333849600000004 -42.4057856 4.584960000000001 -15.462522880000002 6.0929024 -31.681054720000002 4.421939200000001 -47.7243392l-5.400064 -52.1870336" stroke-width="20.48"></path><path id="Vector_84" stroke="#eef5f5" stroke-linecap="round" stroke-linejoin="round" d="m3365.258752 2123.34592 10.433331200000001 97.4253056" stroke-width="20.48"></path><path id="Vector_85" stroke="#eef5f5" stroke-linecap="round" stroke-linejoin="round" d="m3323.5050496000003 2226.1916672 104.00727040000001 -10.8408832" stroke-width="20.48"></path><path id="Vector_86" stroke="#eef5f5" stroke-linecap="round" stroke-linejoin="round" d="m2514.2901760000004 2523.8880256 124.8943104 58.38182400000001 -22.4357376 -265.23484160000004 -113.2790784 78.86131200000001" stroke-width="20.48"></path><path id="Vector_87" stroke="#eef5f5" stroke-linecap="round" stroke-linejoin="round" d="M2395.998208 2312.0221184c25.207091200000004 -2.2007808 50.2919168 5.216665600000001 70.2415872 20.785152 19.949670400000002 15.568486400000001 33.2562432 38.106112 37.2298752 63.0890496l10.433331200000001 120.22784000000001c1.1615232000000002 13.123174400000002 -0.2852864 26.3482368 -4.2385408 38.921216 -3.9532544000000005 12.5729792 -10.3518208 24.249344 -18.8289024 34.336256000000006 -8.4770816 10.086912 -18.84928 18.4213504 -30.546022400000005 24.4938752 -11.6967424 6.0725248 -24.4938752 9.781248 -37.6170496 10.902016000000001l-241.25040640000003 20.0923136c-13.143552000000001 1.2022784 -26.388992 -0.203776 -38.982348800000004 -4.1366528 -12.5729792 -3.9532544000000005 -24.269721600000004 -10.3518208 -34.3566336 -18.8289024 -10.1072896 -8.4770816 -18.441728 -18.890035200000003 -24.4938752 -30.6071552 -6.0521472 -11.71712 -9.7404928 -24.5142528 -10.8205056 -37.6578048l-9.6589824 -112.0768c-1.2022784 -13.143552000000001 0.203776 -26.388992 4.1366528 -38.9619712 3.9532544000000005 -12.5933568 10.3314432 -24.2900992 18.8289024 -34.377011200000005 8.4770816 -10.1072896 18.869657600000004 -18.441728 30.586777599999998 -24.4938752 11.7374976 -6.0521472 24.5346304 -9.7404928 37.678182400000004 -10.8205056l241.6579584 -20.88704Z" stroke-width="20.48"></path><path id="Vector_88" stroke="#eef5f5" stroke-linecap="round" stroke-linejoin="round" d="M3062.5291263999998 309.29121280000004c-2.4045568 -29.902090240000003 -15.364710400000002 -57.972234240000006 -36.577792 -79.18735360000001 -21.2130816 -21.21715712 -49.27303680000001 -34.194224128 -79.18735360000001 -36.610803712000006 -29.893939200000002 -2.416579584 -59.6859904 5.885254656000001 -84.01684480000002 23.420383232 -24.351232000000003 17.534924800000002 -41.651814400000006 43.15771904 -48.8247296 72.28546048 31.748300800000003 14.645381120000001 59.624857600000006 36.49424384 81.44926720000001 63.8124544 21.8244096 27.3161728 36.9649664 59.34772224 44.219392 93.5433728 17.2598272 -0.39940096 34.2547456 -4.3343155200000005 49.9454976 -11.562250240000001 15.690752000000002 -7.225896960000001 29.7105408 -17.59198208 41.244262400000004 -30.4543232 11.513344 -12.86234112 20.275712000000002 -27.95195392 25.7369088 -44.333506560000004 5.461196800000001 -16.38155264 7.4989568 -33.71066368 6.011392 -50.913433600000005v0Z" stroke-width="20.48"></path><path id="Vector_89" stroke="#eef5f5" stroke-linecap="round" stroke-linejoin="round" d="M2943.0756352 474.3905280000001c-4.8702464 -58.57133568 -32.502272 -112.89801728 -76.9865728 -151.31794432 -44.4639232 -38.419927040000005 -102.23441920000002 -57.87034624 -160.9015296 -54.17588736 -58.6467328 3.69445888 -113.5236096 30.23832064 -152.832 73.93604608 -39.288012800000004 43.697725440000006 -59.910144 101.0627072 -57.3833216 159.7807616 46.562816000000005 -12.62188544 94.42979840000001 -19.89057536 142.6432 -21.6613888 2.6083328000000003 15.83747072 6.215168 31.491543040000003 10.8205056 46.86848 4.2589184 9.6589824 10.8205056 10.433331200000001 22.415360000000003 -7.3563136 25.920307200000003 -37.494784 78.4945152 20.4998656 17.015296 65.3509632 26.531635200000004 45.92295936 60.2361856 87.30375168 99.85024000000001 122.571264 48.559820800000004 -15.6601856 90.374656 -47.33105152000001 118.59763200000002 -89.83668736 28.2025984 -42.505635840000004 41.1831296 -93.329408 36.761190400000004 -144.15929344Z" stroke-width="20.48"></path><path id="Vector_90" stroke="#eef5f5" stroke-linecap="round" stroke-linejoin="round" d="m354.22178304 1779.2497664 80.797184 -8.1306624" stroke-width="20.48"></path><path id="Vector_91" stroke="#eef5f5" stroke-linecap="round" stroke-linejoin="round" d="m578.06971904 1756.4268544000001 80.8175616 -8.1102848" stroke-width="20.48"></path><path id="Vector_92" stroke="#eef5f5" stroke-linecap="round" stroke-linejoin="round" d="m491.07978240000006 1611.4402304 8.1306624 80.8175616" stroke-width="20.48"></path><path id="Vector_93" stroke="#eef5f5" stroke-linecap="round" stroke-linejoin="round" d="m513.9026944000001 1835.308544 8.1102848 80.797184" stroke-width="20.48"></path><path id="Vector_94" stroke="#eef5f5" stroke-linecap="round" stroke-linejoin="round" d="m387.86520064 1667.1322112 63.007539200000004 51.0255104" stroke-width="20.48"></path><path id="Vector_95" stroke="#eef5f5" stroke-linecap="round" stroke-linejoin="round" d="m562.217984 1809.0214400000002 63.0279168 51.41268480000001" stroke-width="20.48"></path><path id="Vector_96" stroke="#eef5f5" stroke-linecap="round" stroke-linejoin="round" d="m603.21567744 1645.0836480000003 -51.045888 63.0279168" stroke-width="20.48"></path><path id="Vector_97" stroke="#eef5f5" stroke-linecap="round" stroke-linejoin="round" d="m461.30810880000007 1819.4547712000003 -51.41268480000001 63.0279168" stroke-width="20.48"></path><path id="Vector_98" stroke="#eef5f5" stroke-linecap="round" stroke-linejoin="round" d="m2226.2731776 853.6584192000001 -46.86848 -114.4406016c28.6509056 -42.595297280000004 42.5076736 -93.43333376 39.430656000000006 -144.68096 -8.4974592 -134.49216 -133.3917696 -238.92736 -282.22976 -234.66844160000002 -151.9557632 4.2385408 -271.7964288 120.22784000000001 -267.55788800000005 259.0400512 4.2181632 146.5353216 141.29827840000002 251.43920640000002 291.05326080000003 242.6157056 53.644032 -3.3826816 105.3725696 -21.225308160000004 149.69384960000002 -51.6368384l116.47836160000001 43.771084800000004Z" stroke-width="20.48"></path><path id="Vector_99" stroke="#eef5f5" stroke-linecap="round" stroke-linejoin="round" d="M1335.4867712000002 795.2765952000001c-7.148462080000001 6.8468736 -16.16758784 11.421644800000001 -25.916231680000003 13.143552000000001 -9.746606080000001 1.7219072000000002 -19.7866496 0.51555328 -28.848568320000002 -3.46826752 -9.06191872 -3.9838208 -16.7401984 -10.5657856 -22.060789760000002 -18.91448832 -5.32059136 -8.34666496 -8.047114239999999 -18.08512 -7.833149440000001 -27.982520320000003 0.2139648 -9.89536256 3.35822848 -19.50747648 9.03542784 -27.61572352 5.675161600000001 -8.1102848 13.628538879999999 -14.3560192 22.85551616 -17.944514560000002 9.22493952 -3.5884953600000005 19.307776 -4.3608064 28.97287168 -2.2211584 9.66305792 2.14168576 18.47636992 7.1015936 25.32324352 14.252093440000001 9.147504640000001 9.59988736 14.1216768 22.43369984 13.83435264 35.6913664 -0.2852864 13.25766656 -5.809653760000001 25.863249920000005 -15.362672640000001 35.0596608v0Z" stroke-width="20.48"></path><path id="Vector_100" stroke="#eef5f5" stroke-linecap="round" stroke-linejoin="round" d="m3403.1407104 135.6944384 17.402470400000002 211.111936" stroke-width="20.48"></path><path id="Vector_101" stroke="#eef5f5" stroke-linecap="round" stroke-linejoin="round" d="m3517.5813120000003 232.34539519999998 -211.0915584 17.7896448" stroke-width="20.48"></path><path id="Vector_102" stroke="#eef5f5" stroke-linecap="round" stroke-linejoin="round" d="M525.4975488 2472.4549632c-14.71466496 -18.034176000000002 -33.7045504 -32.115097600000006 -55.2436736 -40.958976 -37.494784 -13.551104000000002 -74.276352 -1.5690752000000001 -117.9659264 10.8205056 -88.03123200000002 24.453120000000002 -182.40030515200002 77.5571456 -231.917873152 40.897843200000004" stroke-width="20.48"></path><path id="Vector_103" stroke="#eef5f5" stroke-linecap="round" stroke-linejoin="round" d="m1428.2659840000001 2503.38816 -4.2589184 -156.9686528" stroke-width="20.48"></path></g></g></svg>