<svg width="256px" height="256px" viewBox="-16.64 -16.64 161.28 161.28" xmlns="http://www.w3.org/2000/svg" xmlns:xlink="http://www.w3.org/1999/xlink" aria-hidden="true" role="img" class="iconify iconify--noto" preserveAspectRatio="xMidYMid meet" fill="#cbacf9" stroke="#cbacf9" stroke-width="2.432" transform="matrix(1, 0, 0, 1, 0, 0)rotate(0)"><g id="SVGRepo_bgCarrier" stroke-width="0" transform="translate(0,0), scale(1)"><rect x="-16.64" y="-16.64" width="161.28" height="161.28" rx="80.64" fill="#cbacf9" strokewidth="0"></rect></g><g id="SVGRepo_tracerCarrier" stroke-linecap="round" stroke-linejoin="round" stroke="#CCCCCC" stroke-width="0.512"></g><g id="SVGRepo_iconCarrier"><path d="M98.89 36.51c1.23 0 2.24-1 2.24-2.24V17.55c0-1.24-1.01-2.24-2.24-2.24H29.1c-1.24 0-2.24 1-2.24 2.24v100.97c0 1.24 1 2.24 2.24 2.24h69.8c1.23 0 2.24-1 2.24-2.24V101.8c0-1.24-1.01-2.24-2.24-2.24H53.24V77.51h35.12c1.23 0 2.24-1 2.24-2.24V58.55c0-1.24-1.01-2.24-2.24-2.24H53.24v-19.8h45.65z" fill="#000319"></path></g></svg>